<?xml version="1.0" encoding="utf-8"?>
<!-- Generator: Adobe Illustrator 27.0.1, SVG Export Plug-In . SVG Version: 6.00 Build 0)  -->
<svg version="1.1" id="Ebene_1" xmlns="http://www.w3.org/2000/svg" xmlns:xlink="http://www.w3.org/1999/xlink" x="0px" y="0px"
	 viewBox="0 0 30.13 30.13" style="enable-background:new 0 0 30.13 30.13;" xml:space="preserve">
<path d="M29.94,28.59c0.03-0.08,0.05-0.16,0.08-0.25c0.02-0.07,0.05-0.14,0.06-0.22c0.03-0.16,0.05-0.33,0.05-0.49V4.02
	c0-1.38-1.12-2.5-2.5-2.5s-2.5,1.12-2.5,2.5v17.57L4.27,0.73c-0.98-0.98-2.56-0.98-3.54,0c-0.98,0.98-0.98,2.56,0,3.54l20.86,20.86
	H4.02c-1.38,0-2.5,1.12-2.5,2.5s1.12,2.5,2.5,2.5h23.6c0.16,0,0.33-0.02,0.49-0.05c0.08-0.01,0.14-0.04,0.22-0.06
	c0.08-0.02,0.17-0.04,0.25-0.08c0.09-0.04,0.16-0.08,0.24-0.13c0.06-0.03,0.13-0.06,0.19-0.1c0.27-0.18,0.51-0.42,0.69-0.69
	c0.04-0.06,0.07-0.12,0.1-0.18C29.85,28.75,29.9,28.67,29.94,28.59z"/>
</svg>
