<?xml version="1.0" encoding="utf-8"?>
<!-- Generator: Adobe Illustrator 27.0.1, SVG Export Plug-In . SVG Version: 6.00 Build 0)  -->
<svg version="1.1" id="Ebene_1" xmlns="http://www.w3.org/2000/svg" xmlns:xlink="http://www.w3.org/1999/xlink" x="0px" y="0px"
	 viewBox="0 0 67.5 38.4" style="enable-background:new 0 0 67.5 38.4;" xml:space="preserve">
<path d="M67.3,18.2c0-0.1-0.1-0.1-0.1-0.2s-0.1-0.1-0.1-0.2c-0.1-0.1-0.2-0.3-0.3-0.4L50.1,0.7c-1-1-2.6-1-3.5,0s-1,2.6,0,3.5
	L59,16.7H2.4c-1.4,0-2.5,1.1-2.5,2.5s1.1,2.5,2.5,2.5H59L46.6,34.1c-1,1-1,2.6,0,3.5c1,1,2.6,1,3.5,0L66.8,21
	c0.1-0.1,0.2-0.2,0.3-0.4c0-0.1,0.1-0.1,0.1-0.2s0.1-0.1,0.1-0.2s0.1-0.2,0.1-0.3c0-0.1,0-0.1,0.1-0.2c0.1-0.3,0.1-0.7,0-1
	c0-0.1,0-0.1-0.1-0.2C67.4,18.4,67.4,18.3,67.3,18.2z"/>
</svg>
