<?xml version="1.0" encoding="utf-8"?>
<!-- Generator: Adobe Illustrator 27.0.1, SVG Export Plug-In . SVG Version: 6.00 Build 0)  -->
<svg version="1.1" id="Ebene_1" xmlns="http://www.w3.org/2000/svg" xmlns:xlink="http://www.w3.org/1999/xlink" x="0px" y="0px"
	 viewBox="0 0 692 502" style="enable-background:new 0 0 692 502;" xml:space="preserve">
<style type="text/css">
	.st0{fill:none;stroke:#C1C1BC;stroke-width:0.5;stroke-miterlimit:10;}
	.st1{fill:none;stroke:#C1C1BC;stroke-width:0.5;stroke-linecap:round;stroke-linejoin:round;stroke-miterlimit:10;}
</style>
<path class="st0" d="M331.3,500.3c-8.8,0-18-0.4-26.8-1.3s-17.6-2.2-26.4-3.5s-17.6-3.5-26.4-5.7s-18-4.8-27.3-7.5
	c-9.2-2.6-18.9-5.7-29-8.8c-10.1-3.1-20.2-6.6-31.2-10.1c-10.6-3.5-21.5-7-33-11c-11.4-4-22.9-7.9-34.3-12.3s-22.9-8.8-33.4-13.6
	c-11-4.8-21.1-10.1-30.3-15.4c-9.2-5.7-16.7-11.9-22.9-18.5C4.1,386,1,378.5,2.3,371s6.6-15,15-22.9s19.8-15.8,32.1-24.2
	c12.8-8.4,26.4-16.7,39.6-25.1s25.5-17.2,34.7-25.9c9.2-8.8,15-17.6,15-26.4c0-7.9-2.6-15.8-6.2-23.7c-3.5-7.9-8.8-15.4-14.5-23.3
	c-5.7-7.5-11.4-15-16.7-22.4c-5.3-7.5-10.6-14.5-14.5-22c-4-7.5-6.6-14.1-7.9-21.1s-0.4-13.6,1.8-20.2s7-12.8,13.2-18.5
	s14.1-10.6,22.4-15c8.8-4.4,18-8.8,28.1-12.3c10.1-4,20.2-7.5,30.8-10.6c10.6-3.5,21.1-6.6,31.2-9.7c10.1-3.1,20.7-6.2,30.3-8.8
	c10.1-3.1,19.4-5.7,29-8.4c9.2-2.6,18.5-5.3,27.3-7.9s17.2-4.8,25.5-7c8.4-2.2,16.3-4,24.2-5.7c7.9-1.8,15.8-3.1,23.8-4.4
	c7.9-1.3,15.8-2.2,23.7-2.6C398.1,2.4,406,2,414,2c7.9,0,15.8,0.4,23.7,0.9c7.9,0.4,15.4,1.8,22.9,2.6c7.5,0.9,14.5,2.6,21.6,4.4
	c7,1.8,13.2,3.5,19.4,5.7c6.2,2.2,11.4,4.4,16.7,7c4.8,2.6,9.2,4.8,13.2,7.9c4,2.6,7,5.3,9.7,8.4c2.6,3.1,4.4,5.7,5.7,8.8
	s2.2,6.2,2.6,9.7c0.4,3.5,0.4,7,0.9,10.6c0,4,0,7.9,0.9,12.3s1.3,9.2,3.5,15c2.2,5.7,5.3,11.9,9.7,18.5c4.8,6.6,11,13.2,18,20.2
	c7.5,7,15.8,14.1,24.6,21.1s18.5,14.5,27.7,22s18.5,15,26.8,22.4c8.4,7.5,15.4,15.4,20.2,23.3c5.3,7.9,8.4,15.8,8.4,23.7
	c0,7-4,13.6-11,20.7c-7,6.6-16.3,13.6-27.7,20.2s-23.8,13.2-37.4,19.8c-13.6,6.6-26.8,12.8-40.5,19.4c-13.2,6.2-26.4,12.3-37.8,18.5
	c-11.4,6.2-22,12.3-30.8,18s-15.4,11.9-20.2,17.2c-4.8,5.3-7,11-9.2,16.3c-2.2,4.8-3.1,9.7-4,14.1s-1.3,8.4-1.8,12.3
	c-0.4,4-0.4,7.5-0.9,11c-0.4,3.5-0.9,7-1.8,10.1s-2.2,6.2-3.5,9.2c-1.8,3.1-3.5,5.7-6.2,8.8c-2.6,2.6-5.3,5.3-8.8,7.9
	s-7,4.8-11.4,7.5c-4.4,2.2-8.8,4.4-14.1,6.6c-4.8,2.2-10.6,4-15.8,5.7c-5.7,1.8-11.4,3.1-17.6,4.8c-6.2,1.8-12.3,2.6-18.9,3.5
	s-13.2,1.8-19.8,2.2C345.4,500.3,338.3,500.3,331.3,500.3z"/>
<path class="st0" d="M675.2,247c0-7.9-3.1-15.8-8.4-23.8c-5.3-7.9-12.3-15.4-20.2-23.3c-8.4-7.5-17.2-15-26.8-22.4
	c-9.2-7.5-18.9-14.5-27.7-21.5s-17.6-14.1-25.1-20.7c-7.5-6.6-14.1-13.2-18.9-19.8c-5.3-6.6-8.8-12.8-11-18
	c-2.6-5.3-4-10.1-4.8-14.5c-0.9-4.4-1.8-8.4-2.2-12.3c-0.4-3.5-1.3-7-2.2-10.1s-2.2-6.2-4-9.2c-1.8-3.1-4-5.7-7-8.4
	c-3.1-2.6-6.2-4.8-10.6-7.5c-4-2.2-8.8-4.4-13.6-6.6c-5.3-2.2-11-4-16.7-5.3c-5.7-1.3-12.8-3.1-19.4-4c-7-1.3-14.1-2.2-21.5-2.6
	c-7.5-0.4-15.4-0.9-23.3-0.9S396,16.5,387.6,17c-8.8,0.4-17.2,1.3-25.5,2.6c-8.4,1.3-16.7,2.6-25.5,4c-8.8,1.8-17.6,3.5-26.4,5.3
	c-8.8,2.2-18,4-27.7,6.6s-19.4,4.8-29,7.5c-10.1,2.6-20.2,5.3-30.3,8.4s-20.7,5.7-31.2,9.2c-10.6,3.1-20.7,6.6-30.3,10.1
	C152,74.2,142.3,78.6,134,83c-8.4,4.4-16.3,9.2-22,14.5c-6.2,5.3-10.6,11.9-13.2,18c-2.6,6.6-3.1,13.2-1.8,19.8
	c0.9,6.6,3.5,13.6,7.5,20.7c4,7,8.8,14.1,14.1,21.5c5.3,7.5,11,15,16.3,22.4c5.3,7.5,10.6,15.4,14.1,23.3c3.5,7.9,6.2,15.8,6.2,23.8
	c0,8.8-6.2,18-15,26.8s-21.5,17.6-34.7,25.9c-13.2,8.4-26.8,16.7-39.1,25.1s-23.3,16.3-31.7,23.8c-7.9,7.9-13.2,15.4-14.5,22.9
	s2.2,14.5,8.4,21.1c5.7,6.6,13.6,12.8,22.9,18c9.2,5.3,19.4,10.6,30.3,15c11,4.8,22,8.8,33.4,13.2c11.4,4.4,22.9,7.9,34.3,11.4
	s22.4,7,33.4,10.1s21.6,6.2,31.7,8.8c10.1,2.6,20.2,5.3,29.9,7c9.7,2.2,19.4,4,28.6,5.3c9.2,1.3,18.5,2.6,27.7,3.5s18,1.3,27.3,1.3
	c7,0,13.6-0.4,20.2-0.9c6.6-0.4,12.8-1.3,18.9-2.2c6.2-0.9,11.9-2.2,17.6-3.1c5.7-1.3,11-2.6,15.8-4.4s9.7-3.5,13.6-5.3
	c4.4-1.8,7.9-4,11.4-6.2s6.6-4.4,9.2-7s4.8-5.3,6.6-7.9c1.8-2.6,3.5-5.7,4.4-8.8c1.3-3.1,2.2-6.2,3.1-9.7s1.3-7,2.2-10.6
	c0.9-4,1.8-7.9,3.1-11.9c1.3-4.4,3.1-8.8,5.3-13.6c2.2-4.8,5.3-10.6,10.6-15.8c5.3-5.7,12.8-11,21.5-16.7
	c8.8-5.7,19.8-11.4,31.2-17.6c11.9-6.2,24.6-11.9,37.8-18.5c13.2-6.2,26.8-12.3,40-18.9s25.5-12.8,36.5-19.4s20.7-13.2,27.3-19.8
	C670.8,261.5,675.2,253.6,675.2,247z"/>
<path class="st0" d="M319,473c-9.2,0-18.5-0.4-27.7-1.3s-18.9-1.8-29-3.5c-10.1-1.8-19.8-3.5-30.3-5.3c-10.6-2.2-21.1-4.4-31.7-7.5
	c-11-2.6-22-5.7-33.4-8.8C155.5,443.5,144,440,133,436c-11.4-4-22.4-7.9-33.4-12.3s-21.1-9.2-29.9-14.5c-9.2-5.3-17.2-11-22.9-17.6
	c-6.2-6.6-9.7-13.6-8.4-21.1c0.9-7.5,5.7-15,13.6-22.4c7.9-7.5,18.5-15.8,30.8-23.7c12.3-7.9,25.5-16.3,38.7-25.1
	c12.8-8.4,25.1-17.2,34.3-25.9c9.2-8.8,15-17.6,15-26.8c0-7.9-2.2-15.8-6.2-23.7c-3.5-7.9-8.4-15.4-13.6-22.9
	c-5.3-7.5-11-15-15.8-22.4c-5.3-7.5-9.7-14.5-13.2-21.6c-3.5-7-6.2-13.6-7-20.2c-0.9-6.6-0.4-13.2,2.2-19.4
	c2.6-6.2,6.6-12.3,12.8-18c6-5.4,13-10.2,21.4-14.6s17.6-8.4,27.3-11.9s19.8-7,29.9-9.7c10.1-2.6,20.7-5.7,30.8-8.4
	c10.1-2.6,20.2-5.3,30.3-7.5c10.1-2.2,19.8-4.4,29-6.2c9.7-1.8,18.9-3.5,27.7-5.3c8.8-1.8,18-2.6,26.4-4c8.8-0.9,17.2-1.8,25.5-2.6
	c8.4-0.4,16.3-0.9,24.6-0.9c7.5,0,14.5,0.4,21.5,0.9c7,0.4,13.2,1.3,19.4,2.2c6.2,0.9,11.9,2.2,17.2,3.5c5.3,1.3,10.1,3.1,14.5,4.8
	c4.4,1.8,8.4,3.5,11.9,5.7s6.6,4.4,8.8,6.6c2.6,2.2,4.4,4.8,6.2,7.5c1.8,2.6,3.1,5.7,4.4,8.8c1.3,3.1,2.2,6.6,3.5,10.1
	s2.6,7.9,4.8,12.3s4.4,9.2,8.4,15c3.5,5.7,8.4,11.4,14.5,17.6c6.2,6.2,12.8,12.3,20.7,18.5s16.3,12.8,25.1,19.4
	c8.8,6.6,18,13.6,26.4,20.2c8.8,7,17.2,14.1,24.6,21.1c7.5,7,14.1,14.5,18.5,21.6c4.4,7,7.5,15,7.5,22.4c0,6.6-3.5,12.8-9.7,19.4
	c-6.2,6.2-14.5,12.8-24.6,18.9c-10.1,6.2-21.5,12.3-33.9,18.5c-12.3,6.2-25.1,11.9-37.4,17.6c-12.8,5.7-25.1,11.4-36.9,17.2
	c-11.9,5.7-22.4,11-32.1,16.7c-9.7,5.3-18,10.6-24.6,15.8c-6.6,5.3-11.9,10.1-15.4,15.4c-3.5,4.8-6.2,9.7-7.9,13.6
	c-1.8,4-3.5,8.4-5.3,11.9c-1.3,3.5-2.6,7-4,10.6c-1.3,3.1-2.2,6.2-3.5,9.2c-1.3,3.1-2.6,5.7-4.4,8.4c-1.8,2.6-3.5,4.8-6.2,7.5
	c-2.2,2.2-4.8,4.4-7.9,6.6s-6.2,4-10.1,5.7c-3.5,1.8-7.5,3.5-11.9,4.8s-8.8,2.6-14.1,4c-4.8,1.3-10.1,2.2-15.8,3.1
	c-5.3,0.9-11.4,1.3-17.2,1.8C331.7,472.6,325.6,473,319,473z"/>
<path class="st0" d="M644.9,247c0-7.5-2.6-15-7.5-22c-4.4-7.5-11-14.5-18.5-21.6c-7.5-7-15.8-14.1-24.6-20.7
	c-8.8-7-18-13.6-26.8-20.2c-8.8-6.6-17.2-12.8-25.1-19.4c-7.9-6.2-15-12.3-21.1-18c-6.2-5.7-11.4-11.4-15.8-17.2
	c-4-5.3-7.5-10.6-9.7-15s-4.8-8.4-6.6-11.9c-1.8-3.5-3.5-7-5.7-9.7c-1.8-3.1-4-5.7-6.2-8.4c-2.2-2.6-4.8-4.8-7.9-7s-6.6-4-10.6-5.7
	c-4-1.8-8.4-3.1-13.2-4.8c-4.8-1.3-10.1-2.6-15.8-3.5c-5.7-0.9-11.9-1.8-18.5-2.2s-14.5-0.4-22-0.4c-8.4,0-17.2,0.4-26.4,0.9
	c-9.2,0.4-18.5,1.3-27.7,2.6c-9.7,1.3-19.4,2.6-29.5,4.4S285.5,50.8,275,53c-10.6,2.2-21.1,4.4-31.7,7.5
	c-10.6,2.6-21.6,5.7-31.7,8.8c-10.1,3.1-20.7,7-30.3,11c-9.7,4-18.5,8.4-25.9,13.6c-7.5,5.3-13.6,11-17.6,17.2
	c-4,6.2-6.2,12.8-6.2,19.8s1.3,13.6,4.4,21.1c3.1,7,7.5,14.5,12.3,22.4c4.8,7.5,11,15.4,16.3,23.3c5.3,7.9,11,15.8,15,24.2
	s6.6,16.7,6.6,25.1c0,9.2-6.2,18-15,26.8c-9.2,8.8-21.6,17.6-34.3,25.9c-12.8,8.4-25.9,16.7-37.8,24.6S76.7,340.1,69.2,348
	c-7.5,7.5-11.9,15-12.8,22c-0.9,7,2.6,14.1,8.8,20.2c6.2,6.2,14.1,11.9,23.3,17.2c9.2,5.3,19.4,9.7,29.9,14.1
	c10.6,4.4,22,7.9,33,11.4c11.4,3.5,22.4,6.6,33.9,9.7c11,2.6,22,5.3,33,7.5s21.1,4,31.7,5.7c10.1,1.3,20.2,2.6,29.9,3.5
	s18.9,1.3,28.1,1.3c6.2,0,12.3,0,18-0.4s11.4-0.9,16.3-1.8c5.3-0.9,10.1-1.8,14.5-2.6c4.4-1.3,8.8-2.2,12.8-4s7.5-3.1,11-4.8
	c3.5-1.8,6.2-3.5,8.8-5.7c2.6-2.2,5.3-4.4,7-6.6c2.2-2.2,4-4.8,5.7-7.9c1.8-2.6,3.5-5.7,5.3-8.8c1.8-3.1,3.5-6.6,5.3-10.1
	s4-7.5,6.6-11.4c2.6-4,5.7-8.8,9.7-13.6c4.4-4.8,10.1-9.7,17.6-14.5s15.8-10.1,25.9-15.4s20.7-10.6,32.5-16.3
	c11.9-5.3,24.2-11,36.5-16.7c12.3-5.7,25.1-11.4,36.9-17.6c11.9-6.2,23.3-11.9,33-18c9.7-6.2,18-12.3,24.2-18.5
	C641.3,259.3,644.9,253.1,644.9,247z"/>
<path class="st0" d="M293,448.8c-9.7,0-20.2-0.4-30.8-1.3c-10.6-0.9-22-2.6-33.4-4.4s-23.3-4.4-35.2-7s-23.8-6.2-35.6-9.7
	c-11.9-3.5-23.8-7.9-34.3-12.3c-11-4.8-21.1-10.1-29.5-15.8c-8.4-6.2-15.8-12.8-18.5-20.2c-2.6-7-0.9-15,4.4-22.9s15-16.3,26.4-24.6
	c11.4-8.4,25.5-17.6,39.1-26.4s27.3-18.5,37.8-27.7c10.6-9.7,17.6-19.4,17.6-29c0-8.4-2.6-16.7-6.6-25.1c-4-8.4-9.2-16.3-14.5-24.2
	s-11-15.8-15.8-23.3s-8.8-15-11.4-22c-2.6-7-4-14.1-3.5-20.7c0.4-6.6,2.6-13.2,6.6-19.4c4-6.2,10.1-11.9,17.6-16.7
	s15.8-9.2,25.5-13.2c9.2-4,19.4-7,29.5-10.1s20.7-5.7,31.2-7.9c10.6-2.2,20.7-4.4,30.8-6.2c10.1-1.8,20.2-3.5,29.9-4.4
	c9.7-1.3,19.4-2.2,28.1-2.6c9.2-0.4,18-0.9,26.4-0.9c7,0,13.6,0.4,19.8,0.4c6.2,0.4,11.9,0.9,17.2,1.8c5.3,0.9,10.1,1.8,15,3.1
	c4.4,1.3,8.8,2.6,12.3,4.4c3.5,1.8,7,3.5,10.1,5.3s5.7,4.4,8.4,6.6c2.6,2.6,4.8,5.3,7.5,8.4c2.6,3.1,4.8,6.2,7.5,10.1
	c2.6,4,5.7,7.5,9.2,12.3c3.5,4.4,7.9,9.7,13.2,14.5c5.3,5.3,11,10.6,18,15.8c7,5.3,14.1,11,22,17.2c7.9,5.7,16.3,11.9,24.6,18
	c8.4,6.2,16.7,12.3,25.1,18.9c7.9,6.2,15.8,12.8,22.4,19.4s12.3,13.2,16.7,20.2c4,6.6,6.6,13.6,6.6,20.7c0,5.7-3.1,11.9-8.4,17.6
	c-5.3,5.7-12.8,11.4-21.6,17.2c-8.8,5.7-18.9,11.4-29.9,16.7c-11,5.7-22.4,11-33.9,16.3c-11.4,5.3-23.3,10.6-34.7,15.8
	c-11.4,5.3-22,10.1-32.1,15c-10.1,4.8-19.4,9.7-27.3,14.5c-8.4,4.8-15.4,9.2-21.1,13.6s-10.6,8.8-14.1,12.8s-6.6,7.9-9.2,11.4
	s-4.8,7-7,10.1s-4.4,6.2-6.6,8.8s-4.4,5.3-6.6,7.5s-4.8,4.4-7.5,6.6c-2.6,2.2-5.7,4-8.8,5.3c-3.1,1.8-6.6,3.1-10.1,4.4
	s-7.5,2.6-11.9,3.5s-8.8,1.8-13.6,2.6c-4.8,0.9-9.7,1.3-15.4,1.8C304.9,448.4,299.2,448.8,293,448.8z"/>
<path class="st0" d="M614.1,247c0-7-2.2-13.6-6.6-20.2c-4-6.6-9.7-13.2-16.3-19.8s-14.1-12.8-22.4-18.9
	c-7.9-6.2-16.3-12.3-24.6-18.5c-8.4-6.2-16.7-11.9-24.6-17.6c-7.9-5.7-15.4-11-22.4-16.3s-13.2-10.6-18.9-15.4
	c-5.7-4.8-10.6-9.7-15-14.1s-7.9-8.4-11.4-11.9s-6.6-6.6-9.7-9.7c-3.1-2.6-6.2-5.3-9.7-7.5c-3.1-2.2-6.6-4.4-10.6-6.2
	c-4-1.8-7.9-3.5-12.3-4.8s-9.2-2.6-14.5-3.5s-11-1.8-16.7-2.2c-6.2-0.4-12.3-0.9-19.4-0.9c-8.4,0-17.2,0.4-26.4,0.9
	c-9.2,0.4-18.5,1.8-28.6,3.1c-9.7,1.3-19.8,3.1-29.5,5.3s-20.2,4.4-29.9,7s-19.4,5.7-28.6,9.7c-9.2,3.5-17.6,7.9-24.6,12.3
	c-7,4.8-13.2,10.1-17.2,16.3s-6.6,11.9-7,18.5c-0.9,6.6,0.4,13.2,2.6,20.2c2.2,7,6.2,14.1,10.6,21.6c4.4,7.5,9.7,15,15,22.9
	s10.1,15.8,14.1,24.2s6.2,16.7,6.2,25.1c0,10.1-7,19.8-17.6,29.5c-10.6,9.7-24.2,18.9-37.8,28.1s-27.3,18-38.3,26.4
	s-19.4,16.7-24.2,24.6c-4.8,7.9-5.7,15.4-2.6,22c3.1,7,11,13.6,19.4,19.4c8.4,5.7,18.9,10.6,29.9,15s22.4,7.9,34.3,11
	c11.4,3.1,23.3,5.7,34.7,7.9c11.4,2.2,22.9,4,33.9,4.8c11,0.9,21.5,1.8,31.2,1.8c5.7,0,11.4,0,16.7-0.4c5.3-0.4,10.1-0.9,15-1.8
	c4.8-0.9,8.8-1.8,13.2-2.6c4-0.9,7.9-2.2,11.4-4c3.5-1.3,7-3.1,10.1-4.8c3.1-1.8,6.2-3.5,8.8-5.7c2.6-2.2,5.7-4.4,8.4-7
	c2.6-2.6,5.3-5.3,8.4-8.4c2.6-3.1,5.7-6.2,8.8-9.7c3.1-3.5,6.6-7,11-11s10.1-7.9,16.3-12.3c6.6-4.4,14.1-8.8,22.4-13.2
	c8.4-4.4,18-9.2,28.1-13.6c10.1-4.8,21.1-9.7,32.1-14.5s22.4-10.1,33.9-15.4c11.4-5.3,22.4-10.6,33-15.8c10.6-5.3,20.2-11,29-16.3
	c8.4-5.7,15.8-11,20.7-16.7C611,258.4,614.1,252.7,614.1,247z"/>
<path class="st0" d="M265.3,425.1c-9.2,0-18.9-0.4-28.6-1.8c-9.7-1.3-20.2-2.6-30.3-4.8c-10.1-2.2-20.7-4.8-30.8-7.9
	s-19.8-6.6-28.6-11s-17.2-9.2-23.3-14.5c-6.6-5.7-9.7-11.9-10.1-18c0-6.6,3.1-13.2,9.2-20.7c6.2-7,15-15,25.5-22.4
	c10.6-7.5,23.3-15.8,35.2-24.2c12.3-8.4,24.2-17.2,33-25.9c8.8-8.8,15-18,15-27.3c0-8.4-2.6-16.7-6.2-25.1
	c-3.5-8.4-8.4-16.3-13.6-23.8c-4.8-7.9-10.1-15.4-14.1-22.9c-4.4-7.5-7.5-14.5-9.7-21.1s-2.6-13.2-1.8-19.4
	c0.9-6.2,3.5-12.3,7.9-17.6c4.4-5.7,10.1-11,17.2-15.4c7-4.4,15.4-8.4,24.2-11.9s18-6.2,27.3-8.4c9.2-2.2,18.9-4.4,28.6-5.7
	c9.7-1.8,18.9-2.6,28.1-3.5s18-1.3,26.4-1.3c6.2,0,12.3,0.4,18,0.9c5.7,0.4,11,1.3,15.8,2.2c4.8,0.9,9.7,2.2,14.1,3.5
	s8.4,3.1,12.3,4.8c4,1.8,7.5,4,11.4,6.2c3.5,2.2,7.5,4.8,11,7.9s7.5,6.2,11.9,9.7s8.8,7.5,14.1,11.9c5.3,4,11,8.4,17.2,13.2
	c6.2,4.4,12.8,9.2,19.8,14.1c7,4.8,14.5,10.1,22,15c7.5,5.3,15.4,10.6,23.3,16.3c7.9,5.3,15.4,11,22.9,16.7s14.1,11.4,19.8,17.6
	c5.7,6.2,11,11.9,14.5,18c3.5,6.2,5.7,12.3,5.7,18.9c0,5.3-2.6,10.6-7,15.8c-4.4,5.3-10.6,10.6-18,15.4c-7.5,5.3-16.3,10.1-25.5,15
	c-9.2,4.8-19.4,9.7-29.9,14.5c-10.6,4.8-21.1,9.2-31.7,14.1c-10.6,4.4-20.7,9.2-30.8,13.6c-10.1,4.4-19.4,8.8-28.1,12.8
	c-8.8,4-17.2,8.4-24.2,11.9c-7.5,4-14.1,7.5-19.8,11.4c-5.7,3.5-11,7-15.4,10.6c-4.4,3.5-7.9,6.6-11.4,9.7s-6.6,5.7-9.7,8.4
	c-3.1,2.6-6.2,4.8-9.2,7c-3.1,2.2-6.2,4-9.7,5.7c-3.1,1.8-6.6,3.1-10.1,4.8c-3.5,1.3-7.5,2.6-11.4,3.5c-4,0.9-7.9,1.8-12.3,2.6
	c-4.4,0.9-8.8,1.3-14.1,1.8C275.4,425.1,270.6,425.1,265.3,425.1z"/>
<path class="st0" d="M583.3,247c0-6.2-2.2-12.3-5.3-18.5c-3.5-6.2-8.4-11.9-14.1-17.6c-5.7-5.7-12.3-11.4-19.4-17.2
	c-7-5.7-14.5-11-22.4-16.3c-7.5-5.3-15.4-10.6-23.3-15.4c-7.5-4.8-15-9.7-22.4-14.5c-7-4.8-14.1-9.2-20.7-13.2
	c-6.6-4.4-12.3-8.4-18-12.3c-5.7-4-11-7.5-15.8-11s-9.7-6.6-14.1-9.2s-8.8-5.3-13.2-7c-4.4-2.2-8.8-4-13.6-5.3
	c-4.8-1.3-9.2-2.6-14.5-4c-5.3-0.9-10.6-1.8-15.8-2.2c-5.7-0.4-11.4-0.9-17.6-0.9c-9.2,0-18.9,0.4-28.6,1.8
	c-9.7,1.3-19.8,2.6-29.5,5.3c-9.7,2.2-19.4,5.3-28.1,8.8c-8.8,3.5-17.2,7.9-23.3,13.2c-6.2,5.3-11.4,10.6-14.5,16.7
	c-3.1,6.2-4.4,12.8-4,19.8s3.1,14.5,6.6,22c3.5,7.9,8.4,15.8,13.6,24.2c5.3,8.4,10.6,17.2,14.5,25.9c4,8.8,7,18,7,27.3
	s-6.2,18.5-15,27.3s-20.7,17.6-32.5,25.9c-11.9,8.4-23.8,16.3-33.9,24.2c-10.1,7.9-18.5,15-23.8,22s-7.9,13.6-7.5,19.8
	c0.4,6.2,4.4,11.9,10.6,16.7c6.2,4.8,14.5,9.7,23.3,13.2s18.5,6.6,28.1,9.2c9.7,2.6,19.8,4.4,29.5,5.7c9.7,1.3,19.4,1.8,28.6,1.8
	c5.3,0,10.1,0,15-0.4s9.2-0.9,13.6-1.8s8.8-1.8,12.8-2.6c4-1.3,7.9-2.6,11.9-4c4-1.3,7.5-3.1,11.4-5.3c3.5-1.8,7.5-4,11-6.2
	c4-2.2,7.5-4.8,11.4-7.5c4-2.6,8.8-5.7,14.1-8.8c5.3-3.1,11-6.2,17.6-9.7s13.6-7,21.1-10.6c7.9-3.5,16.3-7.5,25.1-11.4
	c8.8-4,18.5-7.9,28.1-12.3c9.7-4,19.8-8.4,29.9-12.8s20.2-8.8,30.3-13.6c10.1-4.4,19.8-9.2,28.6-14.1c8.8-4.8,17.2-9.7,24.2-14.5
	s13.2-10.1,17.2-15C581.1,257.1,583.3,251.8,583.3,247z"/>
<path class="st0" d="M245.9,399.1c-9.2,0-18.9-0.9-28.1-2.2c-9.2-1.3-18.9-3.5-27.3-6.6c-8.8-3.1-16.7-7-22.9-11.4s-10.1-9.7-11-15
	c-1.3-5.7,0.4-11.9,4.8-18.5c4.4-6.6,11.9-13.6,21.6-21.6c9.2-7.5,20.7-15.4,32.1-23.7c11.4-8.4,23.3-17.2,32.1-25.9
	c8.8-8.8,15-18,15-27.7s-3.1-18.5-7-27.7c-4-8.8-9.2-17.6-14.1-25.9c-4.8-8.4-9.2-16.3-12.3-23.7c-3.1-7.5-4.8-14.5-4.4-21.6
	c0-6.6,2.2-12.8,5.7-18.5s9.2-10.6,15.8-15s15-8.4,23.8-11.4c8.8-3.1,18-5.3,27.3-6.6c9.2-1.3,18.9-2.2,28.6-2.2
	c6.2,0,11.9,0.4,17.6,0.9c5.7,0.4,11,1.3,16.3,2.6c5.3,1.3,10.6,2.6,15.4,4.4c5.3,1.8,10.1,4,15.4,6.6s10.6,5.3,15.8,8.4
	c5.3,3.1,11.4,6.2,17.2,9.7c6.2,3.5,12.3,7,18.9,11s13.6,7.9,20.7,12.3c7,4.4,14.5,8.8,22.4,13.6c7.5,4.8,15.4,9.7,22.9,15
	c7.5,5.3,15,10.1,22,15.8c7,5.3,13.2,11,18.9,16.7s10.1,11.4,13.6,17.2c3.5,5.7,5.3,11.9,5.3,18c0,4.8-1.8,9.2-5.3,14.1
	c-3.5,4.4-8.4,9.2-14.5,13.6c-6.2,4.4-13.2,8.8-21.1,13.2c-7.9,4.4-16.3,8.4-25.1,12.8c-8.8,4-18,8.4-27.3,12.3
	c-9.2,4-18.5,7.9-27.7,11.4s-18,7.5-26.8,11s-17.2,7-24.6,10.6c-7.9,3.5-15.4,6.6-22.4,9.7s-13.6,6.2-19.8,8.8
	c-6.2,2.6-11.9,5.3-17.2,7.9c-5.3,2.6-9.7,5.3-14.1,7.5s-8.8,4.4-12.8,6.2c-4,1.8-7.9,3.5-11.9,5.3s-7.9,2.6-11.9,4
	c-4,1.3-8.4,2.2-12.3,2.6c-4.4,0.9-8.4,1.3-13.2,1.8C255.2,399.1,250.8,399.1,245.9,399.1z"/>
<path class="st0" d="M552.9,247c0-5.3-1.8-11-4.4-16.3c-2.6-5.3-6.6-10.6-11.4-15.4c-4.8-4.8-10.1-10.1-16.3-15
	c-6.2-4.8-12.8-9.7-19.4-14.1c-6.6-4.4-13.6-8.8-20.7-13.2c-7-4.4-14.1-8.4-20.7-12.3c-7-4-13.6-7.5-20.2-11.4
	c-6.6-3.5-12.8-7-18.9-10.1c-6.2-3.1-11.9-6.2-17.6-8.8c-5.7-2.6-11.4-5.3-16.7-7.5c-5.3-2.2-10.6-4.4-15.8-6.2
	c-5.3-1.8-10.6-3.1-15.8-4.4c-5.3-1.3-11-1.8-16.3-2.6c-5.3-0.4-10.6-0.9-16.3-0.9c-9.7,0-18.9,0.9-27.7,2.6
	c-8.8,1.8-17.2,4.4-24.2,7.9s-13.2,7.9-17.6,12.8s-7.5,10.6-8.4,16.7c-0.9,6.2-0.4,13.2,2.2,20.2c2.2,7.5,6.2,15,10.6,23.3
	c4.4,8.4,9.2,16.7,13.2,25.9c4,8.8,6.6,18.5,6.6,27.7c0,9.7-6.2,18.9-15,27.7c-8.8,8.8-20.2,17.6-31.2,25.9
	c-11,8.4-21.6,16.3-29.9,23.3c-8.4,7-15,14.1-18,20.2c-3.5,6.2-4,11.9-2.2,16.7c2.2,4.8,6.6,9.2,12.8,12.8
	c6.2,3.5,14.1,6.2,22.9,7.9c8.8,1.8,18,2.6,27.3,2.6c4.4,0,8.8,0,13.2-0.4c4.4-0.4,8.8-0.9,13.2-1.8c4.4-0.9,8.8-1.8,13.2-3.1
	c4.4-1.3,9.2-2.6,13.6-4c4.8-1.8,9.7-3.1,15-5.3c5.3-1.8,10.6-4,16.3-6.2c5.7-2.2,11.9-4.4,18-7c6.6-2.6,13.2-5.3,20.2-7.9
	s14.5-5.7,22.4-8.8c7.9-3.1,15.8-6.2,24.2-9.7c8.4-3.5,17.2-6.6,25.9-10.1c8.8-3.5,17.6-7,26.4-11s17.6-7.5,25.5-11.4
	c8.4-4,16.3-7.9,23.3-11.9c7.5-4,14.1-8.4,19.4-12.3c5.7-4.4,10.1-8.4,13.6-12.8C551.2,255.8,552.9,251.4,552.9,247z"/>
<path class="st0" d="M250.4,369.2c-8.4,0-16.3-0.9-22.9-2.6c-6.6-1.8-11.9-4-15.8-7c-4-3.1-6.2-7-6.2-11.4s1.8-9.2,6.2-15
	c4-5.7,10.1-11.4,18-18c7.5-6.6,16.7-13.6,25.9-20.7c9.2-7.5,18.5-15,25.5-22.9S293,255.3,293,247c0-9.7-3.1-18.9-6.6-28.1
	c-3.5-9.2-8.4-17.6-11.9-25.9c-3.5-8.4-6.6-15.8-7.9-22.9c-1.3-7-0.9-13.2,1.3-18.9c2.2-5.7,6.2-10.6,11.9-14.5
	c5.7-4,12.3-7,20.7-9.2c7.9-2.2,17.2-3.1,26.8-3.1c5.7,0,11.4,0.4,17.2,1.3c5.7,0.9,11.4,1.8,17.6,3.1c5.7,1.3,11.9,3.1,18,5.3
	s12.3,4.4,18.9,7s13.2,5.7,19.8,8.8c7,3.1,13.6,6.6,21.1,10.6c7,3.5,14.5,7.5,21.6,11.9c7,4.4,14.5,8.4,21.6,13.2
	c7,4.4,14.1,9.2,20.7,14.1c6.6,4.8,12.3,10.1,17.6,15c5.3,5.3,9.2,10.6,12.3,15.8c3.1,5.3,4.8,11,4.8,16.7c0,4.4-1.8,8.8-5.3,13.2
	s-7.9,8.8-13.6,12.8c-5.7,4.4-12.3,8.4-19.8,12.3c-7.5,4-15.4,7.9-23.7,11.9c-8.4,4-17.2,7.5-25.9,11.4c-8.8,3.5-17.6,7-26.4,10.6
	c-8.8,3.5-17.2,6.6-25.5,9.7c-8.4,3.1-16.3,6.2-24.2,8.8c-7.9,2.6-15.4,5.3-22.4,7.9s-14.1,4.8-20.2,7c-6.6,2.2-12.8,4-18.5,5.7
	c-5.7,1.8-11.4,3.5-17.2,4.8c-5.3,1.3-10.6,2.6-15.8,3.5c-4.8,0.9-10.1,1.8-14.5,2.2C259.2,369.2,254.8,369.2,250.4,369.2z"/>
<path class="st0" d="M522.2,247c0-5.3-1.8-10.6-4.4-15.8c-2.6-5.3-7-10.1-11.9-15c-4.8-4.8-10.6-9.7-16.7-14.1s-12.8-8.8-19.4-13.2
	s-13.6-8.4-20.7-11.9c-7-3.5-14.1-7.5-21.1-10.6s-13.6-6.2-20.7-9.2c-7-3.1-13.2-5.3-19.8-7.5c-6.2-2.2-12.8-4-18.5-5.3
	c-6.2-1.3-11.9-2.6-17.6-3.5s-11.4-1.3-16.7-1.3c-8.4,0-15.8,0.9-22.4,2.6c-6.6,1.8-11.9,4.4-16.3,7.9s-7,7.9-8.4,12.8
	c-1.3,4.8-1.3,10.6-0.4,16.7c1.3,6.2,3.5,12.8,6.6,19.8s6.2,14.5,8.8,22.4c2.6,7.9,4.8,16.3,4.8,24.6c0,8.4-4.8,16.7-11.4,24.6
	s-15.4,15.4-23.7,22.4c-8.4,7-16.3,13.6-22.9,19.8c-6.6,6.2-11,11.9-13.6,16.7c-2.6,4.8-3.1,9.2-1.3,12.8c1.8,3.5,5.3,6.2,10.6,7.9
	s12.3,2.6,20.7,2.6c4.4,0,8.8-0.4,13.6-0.9c4.8-0.4,9.7-1.3,15-2.2c5.3-0.9,10.6-2.2,16.3-3.5c5.7-1.3,11.9-3.1,18-4.8
	c6.2-1.8,12.8-3.5,19.8-5.7s14.1-4.4,21.6-7s15-5.3,22.9-7.9s15.8-5.7,24.2-8.8c7.9-3.1,16.3-6.2,24.2-9.7
	c7.9-3.5,16.3-6.6,23.8-10.1s15-7,21.5-11c6.6-4,12.8-7.5,18-11.4c5.3-4,9.2-7.9,12.3-11.9C520.4,255.3,522.2,250.9,522.2,247z"/>
<path class="st0" d="M289.1,338.5c-8.4,0-15-1.3-18.9-3.1c-4-2.2-6.2-5.3-5.7-9.2c0.4-4,3.1-8.8,7.9-14.5s11.4-11.9,18.5-18.5
	c7-6.6,15-14.1,21.1-22c6.2-7.9,11-15.8,11-24.6s-1.8-16.7-4.4-24.6c-2.6-7.9-5.3-15-7-22c-2.2-6.6-3.5-13.2-3.5-18.5
	s1.3-10.6,4.4-14.5c3.1-4,7.5-7,13.2-9.2s13.2-3.1,21.6-3.1c5.7,0,11.4,0.4,18,1.3c6.6,0.9,12.8,2.2,19.4,4.4s13.6,4,20.7,6.6
	c7,2.6,14.5,5.7,22,9.2s15,7,22,11c7.5,4,14.5,8.4,21.1,12.8c6.6,4.4,12.8,9.2,18.5,14.5s10.1,10.1,13.2,15.4
	c3.1,5.3,5.3,11,5.3,16.7c0,4.4-1.8,8.4-4.8,12.3c-3.1,4-7.5,7.9-12.8,11.9s-11.4,7.5-18,11.4c-6.6,3.5-14.1,7-21.6,10.6
	c-7.5,3.5-15.4,6.6-23.3,9.7s-15.8,6.2-23.7,8.8c-7.9,2.6-15.8,5.3-23.3,7.9c-7.5,2.2-15,4.4-22,6.6s-13.6,4-20.2,5.3
	c-6.6,1.8-12.3,3.1-18,4s-11,1.8-16.3,2.6C298.3,338.5,293.5,338.5,289.1,338.5z"/>
<path class="st0" d="M491.8,247c0-5.3-1.8-10.6-4.8-15.4c-3.1-4.8-7-9.7-12.3-14.5s-11-8.8-17.2-13.2c-6.2-4-12.8-7.9-19.8-11.4
	c-6.6-3.5-13.6-6.6-20.2-9.2c-6.6-2.6-13.6-5.3-20.2-7c-6.6-1.8-12.8-3.5-18.9-4.4c-6.2-0.9-11.9-1.8-17.2-1.8
	c-8.4,0-15.4,1.3-20.2,4c-5.3,2.6-8.4,6.2-10.1,11s-1.8,10.1-0.9,16.7c0.9,6.2,3.1,13.2,4.8,21.1c1.8,7.5,3.5,15.8,3.5,24.2
	s-4.4,16.7-10.1,24.2s-12.3,14.5-18,21.1c-5.7,6.2-10.1,11.9-12.3,16.7c-2.2,4.8-1.8,8.4,0.9,11c2.6,2.6,8.4,4,17.2,4
	c4.4,0,8.8-0.4,14.1-0.9c5.3-0.4,11-1.8,17.2-3.1c6.2-1.3,12.8-2.6,19.8-4.8c7-1.8,14.1-4,21.6-6.2s15-4.8,22.9-7.5
	c7.5-2.6,15.4-5.7,22.9-8.8c7.5-3.1,15-6.6,21.6-10.1s12.8-7,18.5-11s9.7-7.9,12.8-11.9C490,255.3,491.8,250.9,491.8,247z"/>
<path class="st0" d="M344.5,308.1c-8.4,0-13.2-1.8-15-4.8c-1.8-3.1-0.4-7.5,2.6-13.2c3.1-5.7,8.4-12.3,13.2-19.4
	c4.8-7.5,8.8-15.4,8.8-23.7s-1.3-16.7-2.6-23.7c-0.9-7.5-1.8-14.1-0.9-19.4c0.9-5.7,3.1-10.1,7.5-13.2s10.6-4.8,19.4-4.8
	c5.7,0,11.9,0.9,18.5,2.2s13.6,3.5,20.7,6.2c7,2.6,14.1,5.7,21.1,9.7c7,3.5,13.6,7.9,19.4,12.3c5.7,4.4,11,9.2,14.5,14.5
	s5.7,10.6,5.7,16.3c0,4.8-2.6,9.7-6.6,14.1s-9.7,8.8-16.7,12.8c-6.6,4-14.5,7.9-22.4,11.4s-16.3,6.6-24.6,9.7
	c-8.4,2.6-16.3,5.3-23.7,7c-7.5,2.2-14.5,3.5-21.1,4.4C355.5,307.2,349.3,308.1,344.5,308.1z"/>
<path class="st0" d="M461,247c0-5.3-1.8-10.1-5.3-14.5c-3.1-4.4-7.9-8.8-12.8-12.8c-4.8-4-11-7-17.2-10.1c-6.2-2.6-11.9-4.8-18-6.6
	c-6.2-1.8-11.4-2.2-16.7-2.2c-8.4,0-14.5,2.2-18,6.2s-4.8,9.7-4.8,16.3s0.4,14.5,0.4,23.3s-3.5,16.3-6.6,23.3
	c-3.1,6.6-5.7,12.3-4.8,16.3c0.9,4,4.8,6.2,13.2,6.2c5.3,0,11.4-0.9,18.5-2.2c7-1.3,14.5-3.5,22.4-6.6c7.9-2.6,15.8-6.2,22.9-10.1
	c7-4,13.6-7.9,18.5-12.8C457.9,256.6,461,251.8,461,247z"/>
<path class="st0" d="M393.7,277.3c-8.4,0-11.4-3.5-11.4-8.8c0-5.7,2.2-13.2,2.2-21.6s0.4-16.3,3.1-21.6c2.6-5.3,7.9-8.8,16.3-8.8
	c5.7,0,11.9,1.3,18,4c6.2,2.6,12.3,6.6,16.7,11c4.4,4.4,7.5,9.7,7.5,15.4s-4,11-10.1,15.4c-6.2,4.4-13.6,8.4-21.6,11
	C406.5,276,399.4,277.3,393.7,277.3z"/>
<path class="st0" d="M430.2,247c0-4.4-2.6-7.9-6.2-11c-3.5-2.6-7.9-4.4-12.3-4.4s-7.5,1.8-9.2,4.4c-1.8,2.6-3.1,6.6-3.1,11
	c0,8.4,0.9,15.4,9.7,15.4c4.4,0,9.2-1.8,13.6-4.4C427.1,254.9,430.2,250.9,430.2,247z"/>
<path class="st1" d="M331.3,500.3c-8.8,0-18-0.4-26.8-1.3s-17.6-2.2-26.4-3.5s-17.6-3.5-26.4-5.7s-18-4.8-27.3-7.5
	c-9.2-2.6-18.9-5.7-29-8.8c-10.1-3.1-20.2-6.6-31.2-10.1c-10.6-3.5-21.5-7-33-11c-11.4-4-22.9-7.9-34.3-12.3s-22.9-8.8-33.4-13.6
	c-11-4.8-21.1-10.1-30.3-15.4c-9.2-5.7-16.7-11.9-22.9-18.5C4.1,386,1,378.5,2.3,371s6.6-15,15-22.9s19.8-15.8,32.1-24.2
	c12.8-8.4,26.4-16.7,39.6-25.1s25.5-17.2,34.7-25.9c9.2-8.8,15-17.6,15-26.4c0-7.9-2.6-15.8-6.2-23.7c-3.5-7.9-8.8-15.4-14.5-23.3
	c-5.7-7.5-11.4-15-16.7-22.4c-5.3-7.5-10.6-14.5-14.5-22c-4-7.5-6.6-14.1-7.9-21.1s-0.4-13.6,1.8-20.2s7-12.8,13.2-18.5
	s14.1-10.6,22.4-15c8.8-4.4,18-8.8,28.1-12.3c10.1-4,20.2-7.5,30.8-10.6c10.6-3.5,21.1-6.6,31.2-9.7c10.1-3.1,20.7-6.2,30.3-8.8
	c10.1-3.1,19.4-5.7,29-8.4c9.2-2.6,18.5-5.3,27.3-7.9s17.2-4.8,25.5-7c8.4-2.2,16.3-4,24.2-5.7c7.9-1.8,15.8-3.1,23.8-4.4
	c7.9-1.3,15.8-2.2,23.7-2.6C398.1,2.4,406,2,414,2c7.9,0,15.8,0.4,23.7,0.9c7.9,0.4,15.4,1.8,22.9,2.6c7.5,0.9,14.5,2.6,21.6,4.4
	c7,1.8,13.2,3.5,19.4,5.7c6.2,2.2,11.4,4.4,16.7,7c4.8,2.6,9.2,4.8,13.2,7.9c4,2.6,7,5.3,9.7,8.4c2.6,3.1,4.4,5.7,5.7,8.8
	s2.2,6.2,2.6,9.7c0.4,3.5,0.4,7,0.9,10.6c0,4,0,7.9,0.9,12.3s1.3,9.2,3.5,15c2.2,5.7,5.3,11.9,9.7,18.5c4.8,6.6,11,13.2,18,20.2
	c7.5,7,15.8,14.1,24.6,21.1s18.5,14.5,27.7,22s18.5,15,26.8,22.4c8.4,7.5,15.4,15.4,20.2,23.3c5.3,7.9,8.4,15.8,8.4,23.7
	c0,7-4,13.6-11,20.7c-7,6.6-16.3,13.6-27.7,20.2s-23.8,13.2-37.4,19.8c-13.6,6.6-26.8,12.8-40.5,19.4c-13.2,6.2-26.4,12.3-37.8,18.5
	c-11.4,6.2-22,12.3-30.8,18s-15.4,11.9-20.2,17.2c-4.8,5.3-7,11-9.2,16.3c-2.2,4.8-3.1,9.7-4,14.1s-1.3,8.4-1.8,12.3
	c-0.4,4-0.4,7.5-0.9,11c-0.4,3.5-0.9,7-1.8,10.1s-2.2,6.2-3.5,9.2c-1.8,3.1-3.5,5.7-6.2,8.8c-2.6,2.6-5.3,5.3-8.8,7.9
	s-7,4.8-11.4,7.5c-4.4,2.2-8.8,4.4-14.1,6.6c-4.8,2.2-10.6,4-15.8,5.7c-5.7,1.8-11.4,3.1-17.6,4.8c-6.2,1.8-12.3,2.6-18.9,3.5
	s-13.2,1.8-19.8,2.2C345.4,500.3,338.3,500.3,331.3,500.3z"/>
<path class="st1" d="M675.2,247c0-7.9-3.1-15.8-8.4-23.8c-5.3-7.9-12.3-15.4-20.2-23.3c-8.4-7.5-17.2-15-26.8-22.4
	c-9.2-7.5-18.9-14.5-27.7-21.5s-17.6-14.1-25.1-20.7c-7.5-6.6-14.1-13.2-18.9-19.8c-5.3-6.6-8.8-12.8-11-18
	c-2.6-5.3-4-10.1-4.8-14.5c-0.9-4.4-1.8-8.4-2.2-12.3c-0.4-3.5-1.3-7-2.2-10.1s-2.2-6.2-4-9.2c-1.8-3.1-4-5.7-7-8.4
	c-3.1-2.6-6.2-4.8-10.6-7.5c-4-2.2-8.8-4.4-13.6-6.6c-5.3-2.2-11-4-16.7-5.3c-5.7-1.3-12.8-3.1-19.4-4c-7-1.3-14.1-2.2-21.5-2.6
	c-7.5-0.4-15.4-0.9-23.3-0.9S396,16.5,387.6,17c-8.8,0.4-17.2,1.3-25.5,2.6c-8.4,1.3-16.7,2.6-25.5,4c-8.8,1.8-17.6,3.5-26.4,5.3
	c-8.8,2.2-18,4-27.7,6.6s-19.4,4.8-29,7.5c-10.1,2.6-20.2,5.3-30.3,8.4s-20.7,5.7-31.2,9.2c-10.6,3.1-20.7,6.6-30.3,10.1
	C152,74.2,142.3,78.6,134,83c-8.4,4.4-16.3,9.2-22,14.5c-6.2,5.3-10.6,11.9-13.2,18c-2.6,6.6-3.1,13.2-1.8,19.8
	c0.9,6.6,3.5,13.6,7.5,20.7c4,7,8.8,14.1,14.1,21.5c5.3,7.5,11,15,16.3,22.4c5.3,7.5,10.6,15.4,14.1,23.3c3.5,7.9,6.2,15.8,6.2,23.8
	c0,8.8-6.2,18-15,26.8s-21.5,17.6-34.7,25.9c-13.2,8.4-26.8,16.7-39.1,25.1s-23.3,16.3-31.7,23.8c-7.9,7.9-13.2,15.4-14.5,22.9
	s2.2,14.5,8.4,21.1c5.7,6.6,13.6,12.8,22.9,18c9.2,5.3,19.4,10.6,30.3,15c11,4.8,22,8.8,33.4,13.2c11.4,4.4,22.9,7.9,34.3,11.4
	s22.4,7,33.4,10.1s21.6,6.2,31.7,8.8c10.1,2.6,20.2,5.3,29.9,7c9.7,2.2,19.4,4,28.6,5.3c9.2,1.3,18.5,2.6,27.7,3.5s18,1.3,27.3,1.3
	c7,0,13.6-0.4,20.2-0.9c6.6-0.4,12.8-1.3,18.9-2.2c6.2-0.9,11.9-2.2,17.6-3.1c5.7-1.3,11-2.6,15.8-4.4s9.7-3.5,13.6-5.3
	c4.4-1.8,7.9-4,11.4-6.2s6.6-4.4,9.2-7s4.8-5.3,6.6-7.9c1.8-2.6,3.5-5.7,4.4-8.8c1.3-3.1,2.2-6.2,3.1-9.7s1.3-7,2.2-10.6
	c0.9-4,1.8-7.9,3.1-11.9c1.3-4.4,3.1-8.8,5.3-13.6c2.2-4.8,5.3-10.6,10.6-15.8c5.3-5.7,12.8-11,21.5-16.7
	c8.8-5.7,19.8-11.4,31.2-17.6c11.9-6.2,24.6-11.9,37.8-18.5c13.2-6.2,26.8-12.3,40-18.9s25.5-12.8,36.5-19.4s20.7-13.2,27.3-19.8
	C670.8,261.5,675.2,253.6,675.2,247z"/>
<path class="st1" d="M319,473c-9.2,0-18.5-0.4-27.7-1.3s-18.9-1.8-29-3.5c-10.1-1.8-19.8-3.5-30.3-5.3c-10.6-2.2-21.1-4.4-31.7-7.5
	c-11-2.6-22-5.7-33.4-8.8C155.5,443.5,144,440,133,436c-11.4-4-22.4-7.9-33.4-12.3s-21.1-9.2-29.9-14.5c-9.2-5.3-17.2-11-22.9-17.6
	c-6.2-6.6-9.7-13.6-8.4-21.1c0.9-7.5,5.7-15,13.6-22.4c7.9-7.5,18.5-15.8,30.8-23.7c12.3-7.9,25.5-16.3,38.7-25.1
	c12.8-8.4,25.1-17.2,34.3-25.9c9.2-8.8,15-17.6,15-26.8c0-7.9-2.2-15.8-6.2-23.7c-3.5-7.9-8.4-15.4-13.6-22.9
	c-5.3-7.5-11-15-15.8-22.4c-5.3-7.5-9.7-14.5-13.2-21.6c-3.5-7-6.2-13.6-7-20.2c-0.9-6.6-0.4-13.2,2.2-19.4
	c2.6-6.2,6.6-12.3,12.8-18c6-5.4,13-10.2,21.4-14.6s17.6-8.4,27.3-11.9s19.8-7,29.9-9.7c10.1-2.6,20.7-5.7,30.8-8.4
	c10.1-2.6,20.2-5.3,30.3-7.5c10.1-2.2,19.8-4.4,29-6.2c9.7-1.8,18.9-3.5,27.7-5.3c8.8-1.8,18-2.6,26.4-4c8.8-0.9,17.2-1.8,25.5-2.6
	c8.4-0.4,16.3-0.9,24.6-0.9c7.5,0,14.5,0.4,21.5,0.9c7,0.4,13.2,1.3,19.4,2.2c6.2,0.9,11.9,2.2,17.2,3.5c5.3,1.3,10.1,3.1,14.5,4.8
	c4.4,1.8,8.4,3.5,11.9,5.7s6.6,4.4,8.8,6.6c2.6,2.2,4.4,4.8,6.2,7.5c1.8,2.6,3.1,5.7,4.4,8.8c1.3,3.1,2.2,6.6,3.5,10.1
	s2.6,7.9,4.8,12.3s4.4,9.2,8.4,15c3.5,5.7,8.4,11.4,14.5,17.6c6.2,6.2,12.8,12.3,20.7,18.5s16.3,12.8,25.1,19.4
	c8.8,6.6,18,13.6,26.4,20.2c8.8,7,17.2,14.1,24.6,21.1c7.5,7,14.1,14.5,18.5,21.6c4.4,7,7.5,15,7.5,22.4c0,6.6-3.5,12.8-9.7,19.4
	c-6.2,6.2-14.5,12.8-24.6,18.9c-10.1,6.2-21.5,12.3-33.9,18.5c-12.3,6.2-25.1,11.9-37.4,17.6c-12.8,5.7-25.1,11.4-36.9,17.2
	c-11.9,5.7-22.4,11-32.1,16.7c-9.7,5.3-18,10.6-24.6,15.8c-6.6,5.3-11.9,10.1-15.4,15.4c-3.5,4.8-6.2,9.7-7.9,13.6
	c-1.8,4-3.5,8.4-5.3,11.9c-1.3,3.5-2.6,7-4,10.6c-1.3,3.1-2.2,6.2-3.5,9.2c-1.3,3.1-2.6,5.7-4.4,8.4c-1.8,2.6-3.5,4.8-6.2,7.5
	c-2.2,2.2-4.8,4.4-7.9,6.6s-6.2,4-10.1,5.7c-3.5,1.8-7.5,3.5-11.9,4.8s-8.8,2.6-14.1,4c-4.8,1.3-10.1,2.2-15.8,3.1
	c-5.3,0.9-11.4,1.3-17.2,1.8C331.7,472.6,325.6,473,319,473z"/>
<path class="st1" d="M644.9,247c0-7.5-2.6-15-7.5-22c-4.4-7.5-11-14.5-18.5-21.6c-7.5-7-15.8-14.1-24.6-20.7
	c-8.8-7-18-13.6-26.8-20.2c-8.8-6.6-17.2-12.8-25.1-19.4c-7.9-6.2-15-12.3-21.1-18c-6.2-5.7-11.4-11.4-15.8-17.2
	c-4-5.3-7.5-10.6-9.7-15s-4.8-8.4-6.6-11.9c-1.8-3.5-3.5-7-5.7-9.7c-1.8-3.1-4-5.7-6.2-8.4c-2.2-2.6-4.8-4.8-7.9-7s-6.6-4-10.6-5.7
	c-4-1.8-8.4-3.1-13.2-4.8c-4.8-1.3-10.1-2.6-15.8-3.5c-5.7-0.9-11.9-1.8-18.5-2.2s-14.5-0.4-22-0.4c-8.4,0-17.2,0.4-26.4,0.9
	c-9.2,0.4-18.5,1.3-27.7,2.6c-9.7,1.3-19.4,2.6-29.5,4.4S285.5,50.8,275,53c-10.6,2.2-21.1,4.4-31.7,7.5
	c-10.6,2.6-21.6,5.7-31.7,8.8c-10.1,3.1-20.7,7-30.3,11c-9.7,4-18.5,8.4-25.9,13.6c-7.5,5.3-13.6,11-17.6,17.2
	c-4,6.2-6.2,12.8-6.2,19.8s1.3,13.6,4.4,21.1c3.1,7,7.5,14.5,12.3,22.4c4.8,7.5,11,15.4,16.3,23.3c5.3,7.9,11,15.8,15,24.2
	s6.6,16.7,6.6,25.1c0,9.2-6.2,18-15,26.8c-9.2,8.8-21.6,17.6-34.3,25.9c-12.8,8.4-25.9,16.7-37.8,24.6S76.7,340.1,69.2,348
	c-7.5,7.5-11.9,15-12.8,22c-0.9,7,2.6,14.1,8.8,20.2c6.2,6.2,14.1,11.9,23.3,17.2c9.2,5.3,19.4,9.7,29.9,14.1
	c10.6,4.4,22,7.9,33,11.4c11.4,3.5,22.4,6.6,33.9,9.7c11,2.6,22,5.3,33,7.5s21.1,4,31.7,5.7c10.1,1.3,20.2,2.6,29.9,3.5
	s18.9,1.3,28.1,1.3c6.2,0,12.3,0,18-0.4s11.4-0.9,16.3-1.8c5.3-0.9,10.1-1.8,14.5-2.6c4.4-1.3,8.8-2.2,12.8-4s7.5-3.1,11-4.8
	c3.5-1.8,6.2-3.5,8.8-5.7c2.6-2.2,5.3-4.4,7-6.6c2.2-2.2,4-4.8,5.7-7.9c1.8-2.6,3.5-5.7,5.3-8.8c1.8-3.1,3.5-6.6,5.3-10.1
	s4-7.5,6.6-11.4c2.6-4,5.7-8.8,9.7-13.6c4.4-4.8,10.1-9.7,17.6-14.5s15.8-10.1,25.9-15.4s20.7-10.6,32.5-16.3
	c11.9-5.3,24.2-11,36.5-16.7c12.3-5.7,25.1-11.4,36.9-17.6c11.9-6.2,23.3-11.9,33-18c9.7-6.2,18-12.3,24.2-18.5
	C641.3,259.3,644.9,253.1,644.9,247z"/>
<path class="st1" d="M293,448.8c-9.7,0-20.2-0.4-30.8-1.3c-10.6-0.9-22-2.6-33.4-4.4s-23.3-4.4-35.2-7s-23.8-6.2-35.6-9.7
	c-11.9-3.5-23.8-7.9-34.3-12.3c-11-4.8-21.1-10.1-29.5-15.8c-8.4-6.2-15.8-12.8-18.5-20.2c-2.6-7-0.9-15,4.4-22.9s15-16.3,26.4-24.6
	c11.4-8.4,25.5-17.6,39.1-26.4s27.3-18.5,37.8-27.7c10.6-9.7,17.6-19.4,17.6-29c0-8.4-2.6-16.7-6.6-25.1c-4-8.4-9.2-16.3-14.5-24.2
	s-11-15.8-15.8-23.3s-8.8-15-11.4-22c-2.6-7-4-14.1-3.5-20.7c0.4-6.6,2.6-13.2,6.6-19.4c4-6.2,10.1-11.9,17.6-16.7
	s15.8-9.2,25.5-13.2c9.2-4,19.4-7,29.5-10.1s20.7-5.7,31.2-7.9c10.6-2.2,20.7-4.4,30.8-6.2c10.1-1.8,20.2-3.5,29.9-4.4
	c9.7-1.3,19.4-2.2,28.1-2.6c9.2-0.4,18-0.9,26.4-0.9c7,0,13.6,0.4,19.8,0.4c6.2,0.4,11.9,0.9,17.2,1.8c5.3,0.9,10.1,1.8,15,3.1
	c4.4,1.3,8.8,2.6,12.3,4.4c3.5,1.8,7,3.5,10.1,5.3s5.7,4.4,8.4,6.6c2.6,2.6,4.8,5.3,7.5,8.4c2.6,3.1,4.8,6.2,7.5,10.1
	c2.6,4,5.7,7.5,9.2,12.3c3.5,4.4,7.9,9.7,13.2,14.5c5.3,5.3,11,10.6,18,15.8c7,5.3,14.1,11,22,17.2c7.9,5.7,16.3,11.9,24.6,18
	c8.4,6.2,16.7,12.3,25.1,18.9c7.9,6.2,15.8,12.8,22.4,19.4s12.3,13.2,16.7,20.2c4,6.6,6.6,13.6,6.6,20.7c0,5.7-3.1,11.9-8.4,17.6
	c-5.3,5.7-12.8,11.4-21.6,17.2c-8.8,5.7-18.9,11.4-29.9,16.7c-11,5.7-22.4,11-33.9,16.3c-11.4,5.3-23.3,10.6-34.7,15.8
	c-11.4,5.3-22,10.1-32.1,15c-10.1,4.8-19.4,9.7-27.3,14.5c-8.4,4.8-15.4,9.2-21.1,13.6s-10.6,8.8-14.1,12.8s-6.6,7.9-9.2,11.4
	s-4.8,7-7,10.1s-4.4,6.2-6.6,8.8s-4.4,5.3-6.6,7.5s-4.8,4.4-7.5,6.6c-2.6,2.2-5.7,4-8.8,5.3c-3.1,1.8-6.6,3.1-10.1,4.4
	s-7.5,2.6-11.9,3.5s-8.8,1.8-13.6,2.6c-4.8,0.9-9.7,1.3-15.4,1.8C304.9,448.4,299.2,448.8,293,448.8z"/>
<path class="st1" d="M614.1,247c0-7-2.2-13.6-6.6-20.2c-4-6.6-9.7-13.2-16.3-19.8s-14.1-12.8-22.4-18.9
	c-7.9-6.2-16.3-12.3-24.6-18.5c-8.4-6.2-16.7-11.9-24.6-17.6c-7.9-5.7-15.4-11-22.4-16.3s-13.2-10.6-18.9-15.4
	c-5.7-4.8-10.6-9.7-15-14.1s-7.9-8.4-11.4-11.9s-6.6-6.6-9.7-9.7c-3.1-2.6-6.2-5.3-9.7-7.5c-3.1-2.2-6.6-4.4-10.6-6.2
	c-4-1.8-7.9-3.5-12.3-4.8s-9.2-2.6-14.5-3.5s-11-1.8-16.7-2.2c-6.2-0.4-12.3-0.9-19.4-0.9c-8.4,0-17.2,0.4-26.4,0.9
	c-9.2,0.4-18.5,1.8-28.6,3.1c-9.7,1.3-19.8,3.1-29.5,5.3s-20.2,4.4-29.9,7s-19.4,5.7-28.6,9.7c-9.2,3.5-17.6,7.9-24.6,12.3
	c-7,4.8-13.2,10.1-17.2,16.3s-6.6,11.9-7,18.5c-0.9,6.6,0.4,13.2,2.6,20.2c2.2,7,6.2,14.1,10.6,21.6c4.4,7.5,9.7,15,15,22.9
	s10.1,15.8,14.1,24.2s6.2,16.7,6.2,25.1c0,10.1-7,19.8-17.6,29.5c-10.6,9.7-24.2,18.9-37.8,28.1s-27.3,18-38.3,26.4
	s-19.4,16.7-24.2,24.6c-4.8,7.9-5.7,15.4-2.6,22c3.1,7,11,13.6,19.4,19.4c8.4,5.7,18.9,10.6,29.9,15s22.4,7.9,34.3,11
	c11.4,3.1,23.3,5.7,34.7,7.9c11.4,2.2,22.9,4,33.9,4.8c11,0.9,21.5,1.8,31.2,1.8c5.7,0,11.4,0,16.7-0.4c5.3-0.4,10.1-0.9,15-1.8
	c4.8-0.9,8.8-1.8,13.2-2.6c4-0.9,7.9-2.2,11.4-4c3.5-1.3,7-3.1,10.1-4.8c3.1-1.8,6.2-3.5,8.8-5.7c2.6-2.2,5.7-4.4,8.4-7
	c2.6-2.6,5.3-5.3,8.4-8.4c2.6-3.1,5.7-6.2,8.8-9.7c3.1-3.5,6.6-7,11-11s10.1-7.9,16.3-12.3c6.6-4.4,14.1-8.8,22.4-13.2
	c8.4-4.4,18-9.2,28.1-13.6c10.1-4.8,21.1-9.7,32.1-14.5s22.4-10.1,33.9-15.4c11.4-5.3,22.4-10.6,33-15.8c10.6-5.3,20.2-11,29-16.3
	c8.4-5.7,15.8-11,20.7-16.7C611,258.4,614.1,252.7,614.1,247z"/>
<path class="st1" d="M265.3,425.1c-9.2,0-18.9-0.4-28.6-1.8c-9.7-1.3-20.2-2.6-30.3-4.8c-10.1-2.2-20.7-4.8-30.8-7.9
	s-19.8-6.6-28.6-11s-17.2-9.2-23.3-14.5c-6.6-5.7-9.7-11.9-10.1-18c0-6.6,3.1-13.2,9.2-20.7c6.2-7,15-15,25.5-22.4
	c10.6-7.5,23.3-15.8,35.2-24.2c12.3-8.4,24.2-17.2,33-25.9c8.8-8.8,15-18,15-27.3c0-8.4-2.6-16.7-6.2-25.1
	c-3.5-8.4-8.4-16.3-13.6-23.8c-4.8-7.9-10.1-15.4-14.1-22.9c-4.4-7.5-7.5-14.5-9.7-21.1s-2.6-13.2-1.8-19.4
	c0.9-6.2,3.5-12.3,7.9-17.6c4.4-5.7,10.1-11,17.2-15.4c7-4.4,15.4-8.4,24.2-11.9s18-6.2,27.3-8.4c9.2-2.2,18.9-4.4,28.6-5.7
	c9.7-1.8,18.9-2.6,28.1-3.5s18-1.3,26.4-1.3c6.2,0,12.3,0.4,18,0.9c5.7,0.4,11,1.3,15.8,2.2c4.8,0.9,9.7,2.2,14.1,3.5
	s8.4,3.1,12.3,4.8c4,1.8,7.5,4,11.4,6.2c3.5,2.2,7.5,4.8,11,7.9s7.5,6.2,11.9,9.7s8.8,7.5,14.1,11.9c5.3,4,11,8.4,17.2,13.2
	c6.2,4.4,12.8,9.2,19.8,14.1c7,4.8,14.5,10.1,22,15c7.5,5.3,15.4,10.6,23.3,16.3c7.9,5.3,15.4,11,22.9,16.7s14.1,11.4,19.8,17.6
	c5.7,6.2,11,11.9,14.5,18c3.5,6.2,5.7,12.3,5.7,18.9c0,5.3-2.6,10.6-7,15.8c-4.4,5.3-10.6,10.6-18,15.4c-7.5,5.3-16.3,10.1-25.5,15
	c-9.2,4.8-19.4,9.7-29.9,14.5c-10.6,4.8-21.1,9.2-31.7,14.1c-10.6,4.4-20.7,9.2-30.8,13.6c-10.1,4.4-19.4,8.8-28.1,12.8
	c-8.8,4-17.2,8.4-24.2,11.9c-7.5,4-14.1,7.5-19.8,11.4c-5.7,3.5-11,7-15.4,10.6c-4.4,3.5-7.9,6.6-11.4,9.7s-6.6,5.7-9.7,8.4
	c-3.1,2.6-6.2,4.8-9.2,7c-3.1,2.2-6.2,4-9.7,5.7c-3.1,1.8-6.6,3.1-10.1,4.8c-3.5,1.3-7.5,2.6-11.4,3.5c-4,0.9-7.9,1.8-12.3,2.6
	c-4.4,0.9-8.8,1.3-14.1,1.8C275.4,425.1,270.6,425.1,265.3,425.1z"/>
<path class="st1" d="M583.3,247c0-6.2-2.2-12.3-5.3-18.5c-3.5-6.2-8.4-11.9-14.1-17.6c-5.7-5.7-12.3-11.4-19.4-17.2
	c-7-5.7-14.5-11-22.4-16.3c-7.5-5.3-15.4-10.6-23.3-15.4c-7.5-4.8-15-9.7-22.4-14.5c-7-4.8-14.1-9.2-20.7-13.2
	c-6.6-4.4-12.3-8.4-18-12.3c-5.7-4-11-7.5-15.8-11s-9.7-6.6-14.1-9.2s-8.8-5.3-13.2-7c-4.4-2.2-8.8-4-13.6-5.3
	c-4.8-1.3-9.2-2.6-14.5-4c-5.3-0.9-10.6-1.8-15.8-2.2c-5.7-0.4-11.4-0.9-17.6-0.9c-9.2,0-18.9,0.4-28.6,1.8
	c-9.7,1.3-19.8,2.6-29.5,5.3c-9.7,2.2-19.4,5.3-28.1,8.8c-8.8,3.5-17.2,7.9-23.3,13.2c-6.2,5.3-11.4,10.6-14.5,16.7
	c-3.1,6.2-4.4,12.8-4,19.8s3.1,14.5,6.6,22c3.5,7.9,8.4,15.8,13.6,24.2c5.3,8.4,10.6,17.2,14.5,25.9c4,8.8,7,18,7,27.3
	s-6.2,18.5-15,27.3s-20.7,17.6-32.5,25.9c-11.9,8.4-23.8,16.3-33.9,24.2c-10.1,7.9-18.5,15-23.8,22s-7.9,13.6-7.5,19.8
	c0.4,6.2,4.4,11.9,10.6,16.7c6.2,4.8,14.5,9.7,23.3,13.2s18.5,6.6,28.1,9.2c9.7,2.6,19.8,4.4,29.5,5.7c9.7,1.3,19.4,1.8,28.6,1.8
	c5.3,0,10.1,0,15-0.4s9.2-0.9,13.6-1.8s8.8-1.8,12.8-2.6c4-1.3,7.9-2.6,11.9-4c4-1.3,7.5-3.1,11.4-5.3c3.5-1.8,7.5-4,11-6.2
	c4-2.2,7.5-4.8,11.4-7.5c4-2.6,8.8-5.7,14.1-8.8c5.3-3.1,11-6.2,17.6-9.7s13.6-7,21.1-10.6c7.9-3.5,16.3-7.5,25.1-11.4
	c8.8-4,18.5-7.9,28.1-12.3c9.7-4,19.8-8.4,29.9-12.8s20.2-8.8,30.3-13.6c10.1-4.4,19.8-9.2,28.6-14.1c8.8-4.8,17.2-9.7,24.2-14.5
	s13.2-10.1,17.2-15C581.1,257.1,583.3,251.8,583.3,247z"/>
<path class="st1" d="M245.9,399.1c-9.2,0-18.9-0.9-28.1-2.2c-9.2-1.3-18.9-3.5-27.3-6.6c-8.8-3.1-16.7-7-22.9-11.4s-10.1-9.7-11-15
	c-1.3-5.7,0.4-11.9,4.8-18.5c4.4-6.6,11.9-13.6,21.6-21.6c9.2-7.5,20.7-15.4,32.1-23.7c11.4-8.4,23.3-17.2,32.1-25.9
	c8.8-8.8,15-18,15-27.7s-3.1-18.5-7-27.7c-4-8.8-9.2-17.6-14.1-25.9c-4.8-8.4-9.2-16.3-12.3-23.7c-3.1-7.5-4.8-14.5-4.4-21.6
	c0-6.6,2.2-12.8,5.7-18.5s9.2-10.6,15.8-15s15-8.4,23.8-11.4c8.8-3.1,18-5.3,27.3-6.6c9.2-1.3,18.9-2.2,28.6-2.2
	c6.2,0,11.9,0.4,17.6,0.9c5.7,0.4,11,1.3,16.3,2.6c5.3,1.3,10.6,2.6,15.4,4.4c5.3,1.8,10.1,4,15.4,6.6s10.6,5.3,15.8,8.4
	c5.3,3.1,11.4,6.2,17.2,9.7c6.2,3.5,12.3,7,18.9,11s13.6,7.9,20.7,12.3c7,4.4,14.5,8.8,22.4,13.6c7.5,4.8,15.4,9.7,22.9,15
	c7.5,5.3,15,10.1,22,15.8c7,5.3,13.2,11,18.9,16.7s10.1,11.4,13.6,17.2c3.5,5.7,5.3,11.9,5.3,18c0,4.8-1.8,9.2-5.3,14.1
	c-3.5,4.4-8.4,9.2-14.5,13.6c-6.2,4.4-13.2,8.8-21.1,13.2c-7.9,4.4-16.3,8.4-25.1,12.8c-8.8,4-18,8.4-27.3,12.3
	c-9.2,4-18.5,7.9-27.7,11.4s-18,7.5-26.8,11s-17.2,7-24.6,10.6c-7.9,3.5-15.4,6.6-22.4,9.7s-13.6,6.2-19.8,8.8
	c-6.2,2.6-11.9,5.3-17.2,7.9c-5.3,2.6-9.7,5.3-14.1,7.5s-8.8,4.4-12.8,6.2c-4,1.8-7.9,3.5-11.9,5.3s-7.9,2.6-11.9,4
	c-4,1.3-8.4,2.2-12.3,2.6c-4.4,0.9-8.4,1.3-13.2,1.8C255.2,399.1,250.8,399.1,245.9,399.1z"/>
<path class="st1" d="M552.9,247c0-5.3-1.8-11-4.4-16.3c-2.6-5.3-6.6-10.6-11.4-15.4c-4.8-4.8-10.1-10.1-16.3-15
	c-6.2-4.8-12.8-9.7-19.4-14.1c-6.6-4.4-13.6-8.8-20.7-13.2c-7-4.4-14.1-8.4-20.7-12.3c-7-4-13.6-7.5-20.2-11.4
	c-6.6-3.5-12.8-7-18.9-10.1c-6.2-3.1-11.9-6.2-17.6-8.8c-5.7-2.6-11.4-5.3-16.7-7.5c-5.3-2.2-10.6-4.4-15.8-6.2
	c-5.3-1.8-10.6-3.1-15.8-4.4c-5.3-1.3-11-1.8-16.3-2.6c-5.3-0.4-10.6-0.9-16.3-0.9c-9.7,0-18.9,0.9-27.7,2.6
	c-8.8,1.8-17.2,4.4-24.2,7.9s-13.2,7.9-17.6,12.8s-7.5,10.6-8.4,16.7c-0.9,6.2-0.4,13.2,2.2,20.2c2.2,7.5,6.2,15,10.6,23.3
	c4.4,8.4,9.2,16.7,13.2,25.9c4,8.8,6.6,18.5,6.6,27.7c0,9.7-6.2,18.9-15,27.7c-8.8,8.8-20.2,17.6-31.2,25.9
	c-11,8.4-21.6,16.3-29.9,23.3c-8.4,7-15,14.1-18,20.2c-3.5,6.2-4,11.9-2.2,16.7c2.2,4.8,6.6,9.2,12.8,12.8
	c6.2,3.5,14.1,6.2,22.9,7.9c8.8,1.8,18,2.6,27.3,2.6c4.4,0,8.8,0,13.2-0.4c4.4-0.4,8.8-0.9,13.2-1.8c4.4-0.9,8.8-1.8,13.2-3.1
	c4.4-1.3,9.2-2.6,13.6-4c4.8-1.8,9.7-3.1,15-5.3c5.3-1.8,10.6-4,16.3-6.2c5.7-2.2,11.9-4.4,18-7c6.6-2.6,13.2-5.3,20.2-7.9
	s14.5-5.7,22.4-8.8c7.9-3.1,15.8-6.2,24.2-9.7c8.4-3.5,17.2-6.6,25.9-10.1c8.8-3.5,17.6-7,26.4-11s17.6-7.5,25.5-11.4
	c8.4-4,16.3-7.9,23.3-11.9c7.5-4,14.1-8.4,19.4-12.3c5.7-4.4,10.1-8.4,13.6-12.8C551.2,255.8,552.9,251.4,552.9,247z"/>
<path class="st1" d="M250.4,369.2c-8.4,0-16.3-0.9-22.9-2.6c-6.6-1.8-11.9-4-15.8-7c-4-3.1-6.2-7-6.2-11.4s1.8-9.2,6.2-15
	c4-5.7,10.1-11.4,18-18c7.5-6.6,16.7-13.6,25.9-20.7c9.2-7.5,18.5-15,25.5-22.9S293,255.3,293,247c0-9.7-3.1-18.9-6.6-28.1
	c-3.5-9.2-8.4-17.6-11.9-25.9c-3.5-8.4-6.6-15.8-7.9-22.9c-1.3-7-0.9-13.2,1.3-18.9c2.2-5.7,6.2-10.6,11.9-14.5
	c5.7-4,12.3-7,20.7-9.2c7.9-2.2,17.2-3.1,26.8-3.1c5.7,0,11.4,0.4,17.2,1.3c5.7,0.9,11.4,1.8,17.6,3.1c5.7,1.3,11.9,3.1,18,5.3
	s12.3,4.4,18.9,7s13.2,5.7,19.8,8.8c7,3.1,13.6,6.6,21.1,10.6c7,3.5,14.5,7.5,21.6,11.9c7,4.4,14.5,8.4,21.6,13.2
	c7,4.4,14.1,9.2,20.7,14.1c6.6,4.8,12.3,10.1,17.6,15c5.3,5.3,9.2,10.6,12.3,15.8c3.1,5.3,4.8,11,4.8,16.7c0,4.4-1.8,8.8-5.3,13.2
	s-7.9,8.8-13.6,12.8c-5.7,4.4-12.3,8.4-19.8,12.3c-7.5,4-15.4,7.9-23.7,11.9c-8.4,4-17.2,7.5-25.9,11.4c-8.8,3.5-17.6,7-26.4,10.6
	c-8.8,3.5-17.2,6.6-25.5,9.7c-8.4,3.1-16.3,6.2-24.2,8.8c-7.9,2.6-15.4,5.3-22.4,7.9s-14.1,4.8-20.2,7c-6.6,2.2-12.8,4-18.5,5.7
	c-5.7,1.8-11.4,3.5-17.2,4.8c-5.3,1.3-10.6,2.6-15.8,3.5c-4.8,0.9-10.1,1.8-14.5,2.2C259.2,369.2,254.8,369.2,250.4,369.2z"/>
<path class="st1" d="M522.2,247c0-5.3-1.8-10.6-4.4-15.8c-2.6-5.3-7-10.1-11.9-15c-4.8-4.8-10.6-9.7-16.7-14.1s-12.8-8.8-19.4-13.2
	s-13.6-8.4-20.7-11.9c-7-3.5-14.1-7.5-21.1-10.6s-13.6-6.2-20.7-9.2c-7-3.1-13.2-5.3-19.8-7.5c-6.2-2.2-12.8-4-18.5-5.3
	c-6.2-1.3-11.9-2.6-17.6-3.5s-11.4-1.3-16.7-1.3c-8.4,0-15.8,0.9-22.4,2.6c-6.6,1.8-11.9,4.4-16.3,7.9s-7,7.9-8.4,12.8
	c-1.3,4.8-1.3,10.6-0.4,16.7c1.3,6.2,3.5,12.8,6.6,19.8s6.2,14.5,8.8,22.4c2.6,7.9,4.8,16.3,4.8,24.6c0,8.4-4.8,16.7-11.4,24.6
	s-15.4,15.4-23.7,22.4c-8.4,7-16.3,13.6-22.9,19.8c-6.6,6.2-11,11.9-13.6,16.7c-2.6,4.8-3.1,9.2-1.3,12.8c1.8,3.5,5.3,6.2,10.6,7.9
	s12.3,2.6,20.7,2.6c4.4,0,8.8-0.4,13.6-0.9c4.8-0.4,9.7-1.3,15-2.2c5.3-0.9,10.6-2.2,16.3-3.5c5.7-1.3,11.9-3.1,18-4.8
	c6.2-1.8,12.8-3.5,19.8-5.7s14.1-4.4,21.6-7s15-5.3,22.9-7.9s15.8-5.7,24.2-8.8c7.9-3.1,16.3-6.2,24.2-9.7
	c7.9-3.5,16.3-6.6,23.8-10.1s15-7,21.5-11c6.6-4,12.8-7.5,18-11.4c5.3-4,9.2-7.9,12.3-11.9C520.4,255.3,522.2,250.9,522.2,247z"/>
<path class="st1" d="M289.1,338.5c-8.4,0-15-1.3-18.9-3.1c-4-2.2-6.2-5.3-5.7-9.2c0.4-4,3.1-8.8,7.9-14.5s11.4-11.9,18.5-18.5
	c7-6.6,15-14.1,21.1-22c6.2-7.9,11-15.8,11-24.6s-1.8-16.7-4.4-24.6c-2.6-7.9-5.3-15-7-22c-2.2-6.6-3.5-13.2-3.5-18.5
	s1.3-10.6,4.4-14.5c3.1-4,7.5-7,13.2-9.2s13.2-3.1,21.6-3.1c5.7,0,11.4,0.4,18,1.3c6.6,0.9,12.8,2.2,19.4,4.4s13.6,4,20.7,6.6
	c7,2.6,14.5,5.7,22,9.2s15,7,22,11c7.5,4,14.5,8.4,21.1,12.8c6.6,4.4,12.8,9.2,18.5,14.5s10.1,10.1,13.2,15.4
	c3.1,5.3,5.3,11,5.3,16.7c0,4.4-1.8,8.4-4.8,12.3c-3.1,4-7.5,7.9-12.8,11.9s-11.4,7.5-18,11.4c-6.6,3.5-14.1,7-21.6,10.6
	c-7.5,3.5-15.4,6.6-23.3,9.7s-15.8,6.2-23.7,8.8c-7.9,2.6-15.8,5.3-23.3,7.9c-7.5,2.2-15,4.4-22,6.6s-13.6,4-20.2,5.3
	c-6.6,1.8-12.3,3.1-18,4s-11,1.8-16.3,2.6C298.3,338.5,293.5,338.5,289.1,338.5z"/>
<path class="st1" d="M491.8,247c0-5.3-1.8-10.6-4.8-15.4c-3.1-4.8-7-9.7-12.3-14.5s-11-8.8-17.2-13.2c-6.2-4-12.8-7.9-19.8-11.4
	c-6.6-3.5-13.6-6.6-20.2-9.2c-6.6-2.6-13.6-5.3-20.2-7c-6.6-1.8-12.8-3.5-18.9-4.4c-6.2-0.9-11.9-1.8-17.2-1.8
	c-8.4,0-15.4,1.3-20.2,4c-5.3,2.6-8.4,6.2-10.1,11s-1.8,10.1-0.9,16.7c0.9,6.2,3.1,13.2,4.8,21.1c1.8,7.5,3.5,15.8,3.5,24.2
	s-4.4,16.7-10.1,24.2s-12.3,14.5-18,21.1c-5.7,6.2-10.1,11.9-12.3,16.7c-2.2,4.8-1.8,8.4,0.9,11c2.6,2.6,8.4,4,17.2,4
	c4.4,0,8.8-0.4,14.1-0.9c5.3-0.4,11-1.8,17.2-3.1c6.2-1.3,12.8-2.6,19.8-4.8c7-1.8,14.1-4,21.6-6.2s15-4.8,22.9-7.5
	c7.5-2.6,15.4-5.7,22.9-8.8c7.5-3.1,15-6.6,21.6-10.1s12.8-7,18.5-11s9.7-7.9,12.8-11.9C490,255.3,491.8,250.9,491.8,247z"/>
<path class="st1" d="M344.5,308.1c-8.4,0-13.2-1.8-15-4.8c-1.8-3.1-0.4-7.5,2.6-13.2c3.1-5.7,8.4-12.3,13.2-19.4
	c4.8-7.5,8.8-15.4,8.8-23.7s-1.3-16.7-2.6-23.7c-0.9-7.5-1.8-14.1-0.9-19.4c0.9-5.7,3.1-10.1,7.5-13.2s10.6-4.8,19.4-4.8
	c5.7,0,11.9,0.9,18.5,2.2s13.6,3.5,20.7,6.2c7,2.6,14.1,5.7,21.1,9.7c7,3.5,13.6,7.9,19.4,12.3c5.7,4.4,11,9.2,14.5,14.5
	s5.7,10.6,5.7,16.3c0,4.8-2.6,9.7-6.6,14.1s-9.7,8.8-16.7,12.8c-6.6,4-14.5,7.9-22.4,11.4s-16.3,6.6-24.6,9.7
	c-8.4,2.6-16.3,5.3-23.7,7c-7.5,2.2-14.5,3.5-21.1,4.4C355.5,307.2,349.3,308.1,344.5,308.1z"/>
<path class="st1" d="M461,247c0-5.3-1.8-10.1-5.3-14.5c-3.1-4.4-7.9-8.8-12.8-12.8c-4.8-4-11-7-17.2-10.1c-6.2-2.6-11.9-4.8-18-6.6
	c-6.2-1.8-11.4-2.2-16.7-2.2c-8.4,0-14.5,2.2-18,6.2s-4.8,9.7-4.8,16.3s0.4,14.5,0.4,23.3s-3.5,16.3-6.6,23.3
	c-3.1,6.6-5.7,12.3-4.8,16.3c0.9,4,4.8,6.2,13.2,6.2c5.3,0,11.4-0.9,18.5-2.2c7-1.3,14.5-3.5,22.4-6.6c7.9-2.6,15.8-6.2,22.9-10.1
	c7-4,13.6-7.9,18.5-12.8C457.9,256.6,461,251.8,461,247z"/>
<path class="st1" d="M393.7,277.3c-8.4,0-11.4-3.5-11.4-8.8c0-5.7,2.2-13.2,2.2-21.6s0.4-16.3,3.1-21.6c2.6-5.3,7.9-8.8,16.3-8.8
	c5.7,0,11.9,1.3,18,4c6.2,2.6,12.3,6.6,16.7,11c4.4,4.4,7.5,9.7,7.5,15.4s-4,11-10.1,15.4c-6.2,4.4-13.6,8.4-21.6,11
	C406.5,276,399.4,277.3,393.7,277.3z"/>
<path class="st1" d="M430.2,247c0-4.4-2.6-7.9-6.2-11c-3.5-2.6-7.9-4.4-12.3-4.4s-7.5,1.8-9.2,4.4c-1.8,2.6-3.1,6.6-3.1,11
	c0,8.4,0.9,15.4,9.7,15.4c4.4,0,9.2-1.8,13.6-4.4C427.1,254.9,430.2,250.9,430.2,247z"/>
</svg>
